<svg width="1700" height="2200" version="1.1" xmlns="http://www.w3.org/2000/svg" desc="Created with imagetracer.js version 1.2.6" ><path fill="rgb(0,0,0)" stroke="rgb(0,0,0)" stroke-width="1" opacity="0" d="M 0 0 L 1700 0 L 1700 2200 L 0 2200 L 0 0 Z M 1493 165 L 1492 166 L 1479 166 L 1472 168 L 1453 176 L 1442 184 L 1438 183 L 1427 173 L 1416 169 L 1404 170 L 1388 178 L 1385 182 L 1381 186 L 1371 189 L 1366 192 L 1351 192 L 1342 190 L 1327 190 L 1319 188 L 1304 187 L 1303 186 Q 1297 185 1296 187 Q 1291 188 1290 186 L 1266 186 L 1260 184 L 1255 185 L 1252 184 L 1207 184 L 1206 185 L 1202 184 L 1200 185 Q 1193 187 1192 184 L 1170 184 L 1159 179 L 1145 180 L 1139 183 L 1130 193 L 1127 204 L 1127 208 L 1133 224 L 1144 240 L 1145 244 L 1154 257 L 1162 273 Q 1171 279 1176 290 L 1178 297 L 1181 300 Q 1181 305 1184 307 L 1184 310 L 1180 312 L 1170 312 L 1164 314 L 1151 314 L 1150 315 L 1119 315 L 1118 314 L 1102 314 L 1091 312 L 1081 312 L 1080 311 L 1040 311 L 1039 310 L 1024 310 L 1023 311 L 1021 310 L 1008 310 L 1007 309 L 991 309 L 975 306 L 947 306 L 946 305 L 934 305 L 933 304 L 895 304 L 886 302 L 863 302 L 862 303 L 848 303 L 847 304 L 828 302 L 822 300 Q 815 298 814 301 L 805 301 L 804 300 L 763 300 L 762 301 L 751 301 L 750 300 L 666 302 L 658 304 L 650 304 L 645 306 L 610 307 L 596 310 L 589 313 L 579 314 L 575 316 L 566 316 L 556 319 L 527 323 L 457 350 L 440 360 L 434 362 L 404 382 Q 401 381 402 384 L 393 390 L 390 394 L 383 400 L 378 409 L 366 424 L 359 430 L 354 436 L 352 445 L 344 461 L 322 497 L 320 509 L 315 526 L 306 543 Q 306 550 302 555 L 301 560 L 301 576 L 297 596 L 297 602 L 294 614 L 291 619 L 292 702 L 294 708 L 294 714 L 297 721 L 297 726 L 312 765 L 317 790 Q 321 793 321 801 L 326 808 L 329 820 L 334 830 L 335 835 L 341 844 L 342 852 L 346 858 L 351 872 L 360 885 L 366 899 L 389 932 Q 388 934 391 933 L 394 937 L 401 951 L 417 971 L 423 975 L 424 978 Q 431 987 442 993 L 448 1001 L 461 1009 L 497 1040 Q 499 1039 498 1042 L 525 1051 Q 538 1052 549 1057 L 555 1057 L 565 1061 L 575 1061 L 584 1063 L 607 1062 L 609 1062 L 610 1061 L 632 1061 L 651 1056 L 662 1055 L 679 1050 L 704 1039 L 709 1035 L 739 1020 L 750 1012 L 772 1000 L 773 998 L 804 976 Q 806 977 805 975 L 817 966 L 819 963 Q 821 964 820 962 L 823 960 L 832 948 L 839 944 L 844 938 L 851 932 L 877 902 L 880 896 L 906 863 L 913 852 Q 912 849 915 850 Q 931 830 943 805 L 952 794 L 960 778 L 963 776 L 966 772 L 967 767 L 990 734 L 992 728 L 1001 717 L 1008 703 Q 1007 700 1010 701 L 1010 699 L 1022 681 Q 1021 678 1024 679 L 1032 664 Q 1031 661 1034 662 L 1040 654 Q 1042 655 1041 653 L 1051 646 L 1071 642 Q 1077 641 1080 643 L 1080 647 L 1066 672 L 1039 708 Q 1037 717 1031 723 L 1029 730 L 1024 734 L 1019 739 L 1019 741 L 1011 751 L 998 774 L 980 799 L 969 821 L 944 854 L 939 865 L 929 879 Q 930 881 927 880 L 907 920 L 891 940 Q 884 957 872 971 L 863 990 L 856 998 L 853 1005 L 849 1009 Q 847 1016 842 1021 L 836 1034 L 832 1038 L 829 1046 L 813 1068 L 811 1074 L 806 1080 L 806 1082 L 791 1106 L 781 1117 Q 778 1127 770 1134 L 758 1157 L 756 1158 L 751 1164 L 749 1171 L 742 1180 L 740 1186 L 729 1199 L 726 1206 L 720 1213 L 713 1228 Q 714 1230 712 1229 L 704 1238 Q 701 1247 694 1254 L 693 1259 L 690 1262 L 683 1278 L 674 1290 Q 675 1292 673 1291 Q 669 1294 668 1300 L 663 1305 L 653 1325 Q 654 1327 652 1326 L 638 1347 L 632 1361 L 615 1383 L 591 1430 Q 586 1440 578 1447 L 559 1482 L 557 1483 L 548 1494 L 543 1506 L 536 1515 L 533 1524 L 524 1537 Q 525 1539 522 1538 L 511 1562 L 506 1570 L 500 1576 L 479 1617 L 460 1646 L 453 1661 L 437 1684 L 428 1704 L 421 1715 L 420 1721 L 416 1729 L 413 1732 L 404 1749 L 404 1753 Q 400 1754 401 1761 L 393 1770 L 383 1785 L 374 1804 L 372 1812 L 362 1830 L 361 1835 L 351 1851 L 348 1859 L 342 1867 L 336 1883 L 330 1892 L 327 1903 L 327 1905 L 316 1922 L 313 1930 L 304 1945 L 302 1953 L 295 1964 L 290 1980 L 286 1984 L 283 1993 L 281 1994 L 279 1996 L 279 2001 L 270 2024 L 264 2032 L 262 2039 L 257 2044 L 245 2039 L 241 2039 L 236 2047 L 232 2070 Q 235 2073 233 2082 L 237 2090 L 247 2094 Q 260 2096 265 2090 L 270 2085 L 298 2042 L 300 2035 L 310 2018 L 313 2008 L 325 1983 L 332 1973 L 345 1945 L 353 1934 L 360 1916 L 360 1913 L 370 1893 L 380 1879 L 396 1844 L 400 1840 L 400 1837 L 403 1833 L 409 1818 L 422 1796 Q 423 1789 426 1786 Q 425 1783 428 1784 L 430 1778 L 439 1763 L 442 1752 L 470 1705 Q 469 1702 472 1703 L 476 1695 Q 475 1692 478 1693 L 480 1687 L 494 1662 L 494 1659 L 500 1647 L 508 1636 Q 507 1633 510 1634 L 541 1580 Q 540 1577 543 1578 L 552 1566 L 568 1536 L 573 1531 L 574 1526 L 579 1516 L 587 1504 L 594 1489 L 601 1481 L 608 1467 L 615 1458 L 622 1443 L 627 1438 Q 629 1430 634 1427 L 648 1402 Q 647 1399 650 1400 Q 656 1384 666 1372 Q 665 1369 668 1370 L 681 1346 L 689 1337 L 689 1334 L 692 1331 L 696 1321 L 708 1305 L 716 1287 L 730 1265 L 739 1254 L 744 1243 L 756 1226 L 764 1211 L 771 1204 L 780 1190 L 801 1151 L 812 1137 L 818 1124 Q 817 1121 820 1122 L 847 1083 L 848 1079 L 852 1075 L 858 1064 Q 857 1061 860 1062 L 904 995 L 904 992 L 916 974 L 922 962 L 925 960 L 931 952 L 936 940 Q 941 936 943 929 L 948 924 L 969 887 L 976 879 L 990 856 Q 989 853 992 854 L 995 847 L 1010 828 L 1016 816 Q 1015 813 1018 814 L 1020 808 L 1041 779 L 1042 775 L 1050 764 L 1051 760 L 1057 754 L 1065 742 L 1074 723 L 1096 697 L 1113 664 L 1116 662 L 1127 649 L 1137 633 Q 1155 623 1170 610 L 1177 607 L 1179 609 L 1177 615 L 1162 638 L 1149 664 L 1144 669 Q 1145 671 1142 670 L 1141 674 L 1130 688 L 1123 702 L 1112 717 L 1108 727 L 1094 747 L 1084 767 L 1077 776 L 1070 796 L 1066 802 L 1066 805 Q 1063 814 1056 820 L 1046 845 L 1041 853 L 1037 869 L 1037 886 L 1041 890 Q 1043 889 1042 892 L 1045 892 L 1048 895 L 1054 897 L 1060 897 L 1075 888 L 1088 873 L 1091 863 L 1094 858 L 1094 855 L 1097 850 Q 1096 847 1099 848 L 1106 837 L 1112 831 L 1118 819 L 1124 813 L 1126 807 Q 1131 804 1132 799 L 1135 797 L 1138 789 L 1143 785 L 1155 766 L 1164 756 L 1166 751 L 1192 720 L 1195 708 L 1200 704 Q 1201 700 1199 699 Q 1190 701 1186 706 Q 1183 705 1184 708 L 1180 710 L 1177 717 L 1165 729 Q 1166 731 1164 730 L 1158 737 L 1156 738 Q 1151 739 1149 737 Q 1152 734 1151 728 L 1155 720 Q 1156 717 1160 717 L 1168 709 L 1170 702 L 1174 698 L 1186 676 Q 1194 668 1198 658 Q 1197 654 1200 655 L 1204 647 L 1210 641 Q 1211 634 1216 631 L 1220 620 L 1236 602 L 1236 600 Q 1243 595 1246 588 Q 1245 585 1248 586 L 1253 577 L 1264 563 Q 1263 559 1266 560 Q 1272 547 1282 538 L 1283 534 L 1293 522 L 1298 512 L 1298 507 L 1295 495 L 1292 490 Q 1293 487 1290 488 L 1290 486 L 1285 482 Q 1279 484 1278 481 Q 1270 480 1268 484 L 1260 493 L 1258 500 L 1255 504 L 1248 510 Q 1243 511 1242 508 Q 1239 509 1240 506 L 1232 502 Q 1229 501 1231 500 Q 1230 497 1233 498 L 1257 461 L 1262 450 L 1265 449 L 1270 450 L 1285 461 L 1296 461 L 1307 457 L 1317 445 L 1317 432 L 1301 419 L 1299 416 L 1300 403 L 1304 396 L 1309 394 Q 1314 390 1316 383 Q 1315 380 1318 381 L 1332 365 L 1334 362 L 1350 348 L 1367 336 L 1386 332 L 1408 330 L 1411 328 L 1419 327 L 1443 318 L 1449 317 L 1465 310 L 1471 309 L 1485 302 L 1515 282 L 1523 279 L 1526 276 Q 1525 273 1528 274 L 1546 249 L 1546 228 L 1542 221 L 1539 208 L 1530 188 L 1525 183 L 1522 180 Q 1516 172 1507 168 L 1493 165 Z M 1541 372 L 1534 376 Q 1528 380 1527 389 L 1527 391 L 1528 393 L 1524 412 L 1517 423 L 1514 424 L 1513 429 L 1497 448 Q 1498 450 1495 449 L 1490 460 L 1486 462 L 1479 473 L 1474 476 L 1459 496 L 1459 498 L 1452 501 L 1449 500 L 1450 496 L 1450 484 L 1449 482 L 1441 474 L 1432 474 L 1423 478 L 1418 484 L 1409 492 L 1394 513 L 1375 532 L 1370 541 L 1365 544 L 1363 548 Q 1359 549 1358 547 L 1372 526 Q 1371 523 1374 524 L 1375 519 L 1379 514 L 1379 505 L 1377 501 L 1377 494 L 1374 484 Q 1371 478 1364 477 L 1357 477 L 1349 480 L 1347 483 L 1344 484 L 1344 487 Q 1340 489 1339 496 L 1331 506 L 1330 512 L 1324 524 Q 1316 531 1311 542 L 1308 544 L 1296 561 L 1294 567 L 1290 569 L 1286 579 L 1276 593 L 1274 599 L 1240 650 L 1233 665 L 1233 668 L 1228 674 Q 1229 676 1227 675 L 1219 684 L 1209 700 Q 1210 702 1207 701 L 1204 707 Q 1202 719 1208 725 L 1211 726 L 1213 732 L 1221 737 L 1228 737 L 1233 735 L 1263 718 L 1280 696 Q 1279 693 1282 694 Q 1282 689 1286 686 L 1287 676 L 1300 662 L 1308 650 Q 1307 647 1310 648 L 1319 632 L 1325 627 L 1333 613 L 1335 616 L 1336 627 L 1340 633 L 1343 633 L 1356 642 L 1365 641 L 1386 629 L 1399 614 Q 1402 610 1401 604 L 1404 600 Q 1403 597 1406 598 Q 1412 594 1414 586 L 1417 584 L 1418 581 L 1430 566 Q 1434 554 1442 547 L 1444 541 L 1448 538 Q 1447 535 1450 536 L 1451 533 L 1460 522 Q 1459 519 1462 520 L 1467 513 L 1470 511 L 1470 517 L 1462 535 L 1458 540 L 1454 552 L 1448 560 L 1446 567 L 1442 572 L 1438 583 L 1428 602 L 1424 604 L 1420 611 L 1417 620 L 1411 627 L 1412 632 L 1416 633 L 1421 631 L 1434 618 L 1439 609 L 1456 591 L 1457 587 L 1464 579 L 1470 567 L 1480 555 L 1480 553 L 1486 548 L 1495 536 L 1500 525 L 1508 516 L 1512 505 Q 1519 499 1523 491 Q 1525 492 1524 490 L 1527 488 L 1528 486 Q 1527 483 1530 484 L 1531 478 L 1539 468 L 1546 451 L 1552 443 L 1553 433 L 1561 423 L 1563 414 L 1567 405 Q 1567 398 1564 396 L 1565 394 L 1565 383 L 1562 378 Q 1556 370 1541 372 Z M 1497 688 Q 1485 693 1471 695 L 1461 699 L 1452 700 Q 1442 706 1430 708 L 1411 717 L 1405 718 L 1399 722 L 1391 724 L 1385 728 L 1376 730 L 1366 735 L 1357 737 L 1346 742 L 1338 743 L 1331 750 Q 1327 749 1328 752 L 1310 759 L 1299 765 L 1279 770 L 1273 773 L 1270 777 Q 1271 781 1269 783 L 1270 792 L 1276 802 L 1288 808 L 1296 808 L 1303 806 L 1307 803 L 1322 799 L 1345 786 L 1359 782 L 1370 777 L 1375 773 L 1378 773 L 1405 762 Q 1415 758 1422 750 L 1430 747 L 1440 738 L 1450 735 L 1477 721 L 1500 704 L 1504 698 L 1505 691 L 1504 689 L 1497 688 Z " /><path fill="rgb(0,0,0)" stroke="rgb(0,0,0)" stroke-width="1" opacity="0" d="M 1467.5 217 L 1490.5 217 L 1498 222.5 L 1503 232.5 Q 1501.3 238.7 1504 240.5 L 1498 250 L 1493.5 251 L 1457.5 274 Q 1446.5 276.5 1438.5 282 L 1414.5 288 Q 1404.2 286.8 1399 289 L 1400 283.5 L 1411 271.5 Q 1411.9 264.9 1416.5 262 Q 1418.8 262.8 1418 260.5 L 1428.5 250 L 1430 250 Q 1428.9 247.3 1431.5 248 L 1436.5 242 L 1439 240.5 L 1446.5 231 L 1467.5 217 Z " /><path fill="rgb(0,0,0)" stroke="rgb(0,0,0)" stroke-width="1" opacity="0" d="M 1289.5 219 Q 1296.6 221.4 1307.5 220 L 1308.5 221 L 1321.5 222 L 1323 223.5 L 1322 227.5 L 1301.5 250 L 1292 256 L 1286 266 Q 1278.8 268.9 1274 275.5 Q 1271.2 277.5 1272 282 L 1257 292.5 L 1255.5 295 Q 1253.3 294.3 1254 296.5 Q 1251.5 303 1242.5 303 L 1240 302 L 1234 290.5 L 1222 275.5 L 1219 266.5 L 1208 246.5 L 1201 237.5 L 1201 234.5 L 1204.5 232 Q 1214.5 231 1221.5 227 L 1236.5 226 L 1240.5 224 L 1276.5 224 Q 1277.8 221.8 1282.5 223 L 1289.5 219 Z " /><path fill="rgb(0,0,0)" stroke="rgb(0,0,0)" stroke-width="1" opacity="0" d="M 1354.5 262 Q 1358.7 260.7 1357 265.5 L 1352.5 272 L 1350 273.5 Q 1342.8 288.8 1330.5 299 L 1324.5 300 L 1320 299 L 1320 294.5 L 1326.5 288 L 1332 283.5 L 1336.5 278 L 1344 271.5 L 1347 266 L 1354.5 262 Z " /><path fill="rgb(0,0,0)" stroke="rgb(0,0,0)" stroke-width="1" opacity="0" d="M 677.5 342 L 745.5 342 L 756.5 345 L 766.5 342 L 807.5 342 L 808.5 343 L 833.5 344 L 834.5 343 L 855.5 343 L 856.5 344 L 885.5 344 L 886.5 345 L 915.5 345 L 916.5 346 L 929.5 346 L 930.5 347 L 948.5 347 L 955.5 349 L 997.5 350 L 998.5 351 L 1043.5 354 L 1045.5 353 L 1046.5 354 L 1081.5 354 L 1082.5 355 L 1094.5 355 L 1095.5 356 L 1133.5 356 L 1134.5 355 L 1142.5 355 L 1144.5 356 L 1150.5 354 L 1190.5 352 L 1193 353 L 1193 356.5 Q 1184.1 367.6 1179 382.5 L 1163 403.5 L 1160 410 L 1157 411.5 L 1139.5 435 L 1136 437.5 L 1134 442.5 L 1128 448.5 L 1122 460.5 L 1108 480.5 L 1105 487.5 L 1099 496.5 L 1091 504.5 L 1082 520 Q 1079.3 518.9 1080 521.5 L 1071.5 532 Q 1069.3 531.3 1070 533.5 L 1060 550.5 L 1053 559 L 1050 560.5 Q 1042.7 567.7 1040 579.5 L 1032 588.5 Q 1027.5 599.5 1019.5 607 L 997.5 613 L 976.5 615 L 972.5 617 L 962.5 618 L 950.5 622 L 931.5 623 L 923.5 626 L 903.5 628 L 896.5 630 L 885.5 630 L 867.5 634 L 837.5 635 L 828.5 637 L 802.5 637 L 801.5 638 L 777.5 638 L 772.5 639 L 771.5 638 L 741.5 638 L 735.5 640 L 699.5 641 L 698.5 640 L 684.5 640 L 683.5 641 L 658.5 642 L 643.5 645 L 633.5 645 L 628.5 647 L 615.5 648 L 607.5 646 L 579.5 646 Q 571.6 648.1 568 654.5 L 569 667.5 L 574.5 675 L 602.5 681 L 616.5 682 L 620.5 684 L 643.5 685 L 652.5 683 L 680.5 682 L 681.5 683 L 711.5 683 L 712.5 682 L 728.5 682 L 729.5 681 L 754.5 681 L 756.5 681 L 764.5 681 L 765.5 680 L 805.5 680 L 816.5 678 L 835.5 678 L 840.5 676 L 857.5 676 L 874.5 673 L 903.5 671 L 920.5 667 L 932.5 666 L 936.5 664 L 950.5 663 L 968.5 659 L 979.5 659 Q 982 660 981 664.5 L 973 681.5 L 968 686.5 L 955 709.5 L 947 717.5 Q 944.7 725.2 939 729.5 L 934 741.5 L 920 760.5 L 907 784.5 L 892 806.5 L 891 811.5 L 886 818.5 L 886 820.5 L 877 831.5 L 877 833.5 L 870 844 L 861 851.5 L 851 868.5 L 843 876.5 L 840 882.5 L 828.5 896 Q 826.3 895.3 827 897.5 L 820 903.5 L 814.5 910 L 805 917.5 L 803.5 920 L 796 926.5 L 788 937 L 783.5 940 L 781 940 Q 782.1 942.7 779.5 942 L 774.5 947 L 761.5 954 L 752 961.5 Q 752.8 963.8 750.5 963 L 744 968.5 Q 744.8 970.8 742.5 970 L 734 976 Q 735.1 978.7 732.5 978 L 720.5 984 L 715.5 985 L 712.5 988 L 704.5 991 L 687.5 1002 L 667.5 1012 L 653.5 1014 L 626.5 1022 L 590.5 1023 L 578.5 1020 L 571.5 1020 L 560.5 1016 L 539.5 1014 L 528.5 1009 L 507.5 995 L 502.5 990 L 500 990 Q 501.1 987.3 498.5 988 L 496 987 Q 497.1 984.3 494.5 985 L 486.5 978 L 484.5 978 L 476.5 972 L 459 955.5 L 455 948 L 452 946.5 L 449.5 943 L 446.5 941 L 432 924.5 L 430 919.5 L 419 908.5 L 416 901.5 L 406 888.5 L 378 836.5 L 376 828.5 L 361 796.5 L 359 786.5 L 354 779.5 L 351 765.5 L 348 760.5 L 346 747.5 L 342 735.5 L 338 728.5 L 329 697.5 L 328 682.5 L 327 681.5 L 327 669.5 L 326 668.5 L 325 640.5 L 326 639.5 L 327 615.5 L 329 607.5 L 329 600.5 L 335 580.5 L 337 558.5 Q 341.2 551.2 342 540.5 L 348 530.5 L 349 524.5 L 355 514.5 L 359 503.5 L 366 492.5 L 366 489.5 L 377 467.5 L 388.5 452 Q 390.8 452.8 390 450.5 L 402.5 434 Q 404.8 434.8 404 432.5 L 414.5 422 L 416 422 L 420.5 416 Q 422.8 416.8 422 414.5 Q 439.5 405.5 453.5 393 L 470.5 384 L 473.5 384 L 475.5 382 L 480.5 381 L 495.5 374 L 505.5 372 L 516.5 366 L 526.5 364 L 532.5 361 L 542.5 360 L 548.5 358 L 557.5 358 L 568.5 354 L 577.5 354 L 601.5 348 L 610.5 348 L 618.5 346 L 636.5 346 L 637.5 345 L 653.5 344 L 654.5 343 L 676.5 343 L 677.5 342 Z " /><path fill="rgb(0,0,0)" stroke="rgb(0,0,0)" stroke-width="1" opacity="0" d="M 1285.5 345 Q 1290.8 343.8 1292 346.5 L 1283.5 358 Q 1276.8 360.3 1279 353.5 L 1283 350.5 L 1285.5 345 Z " /><path fill="rgb(0,0,0)" stroke="rgb(0,0,0)" stroke-width="1" opacity="0" d="M 1226.5 394 L 1234 395 L 1241 405.5 L 1242 410.5 L 1228 435.5 L 1221.5 444 L 1219 445.5 L 1212 461.5 L 1203 470.5 L 1203 472 Q 1200.3 470.9 1201 473.5 L 1200 476 L 1197 477.5 L 1178.5 505 Q 1176.3 504.3 1177 506.5 L 1173 509.5 L 1169 517.5 L 1165 521.5 L 1159 537.5 L 1144 559 Q 1141.3 557.9 1142 560.5 L 1132 572.5 L 1126 584 L 1119.5 588 L 1102.5 595 L 1092.5 595 L 1086 596 L 1085 590.5 L 1088 583.5 L 1104 564.5 L 1110 552.5 Q 1119.9 543.4 1126 530.5 L 1133 523.5 L 1138.5 514 Q 1141.1 514.7 1140 512 L 1142 512 L 1142 510.5 Q 1145 507.5 1145 501.5 L 1150 493.5 L 1156 487.5 L 1157 483.5 L 1171 466.5 L 1174 460.5 L 1183 451.5 L 1187.5 444 Q 1189.8 444.8 1189 442.5 L 1192 438 L 1198 433.5 Q 1200 426.5 1205 422.5 L 1206 418.5 L 1226.5 394 Z " /><path fill="rgb(0,0,0)" stroke="rgb(0,0,0)" stroke-width="1" opacity="0" d="M 1189.5 559 L 1194.5 559 L 1198.5 563 L 1209 566 L 1209 569.5 L 1204 575.5 L 1204 577.5 L 1188.5 595 L 1184.5 598 Q 1181.8 596.8 1184 595.5 L 1186 588.5 L 1186 580.5 L 1182 573.5 L 1182 570.5 L 1186.5 562 Q 1188.8 562.8 1188 560.5 L 1189.5 559 Z " /><path fill="rgb(0,0,0)" stroke="rgb(0,0,0)" stroke-width="1" opacity="0" d="M 662 1338 L 666 1339.5 L 662 1341 L 662 1338 Z " /><path fill="rgb(0,0,0)" stroke="rgb(0,0,0)" stroke-width="1" opacity="0" d="M 607.5 1429 L 608 1433.5 L 607 1436 L 604.5 1437 L 603 1433.5 L 607.5 1429 Z " /><path fill="rgb(0,0,0)" stroke="rgb(0,0,0)" stroke-width="1" opacity="0" d="M 586.5 1464 Q 592.6 1462.2 590 1469.5 Q 587.2 1471.2 588 1476.5 L 582 1482.5 Q 580.3 1490.8 574.5 1495 L 570.5 1496 L 569 1492.5 Q 572 1489.3 571 1483 L 574 1481.5 L 576 1475.5 L 582.5 1466 L 586.5 1464 Z " /><path fill="rgb(0,0,0)" stroke="rgb(0,0,0)" stroke-width="1" opacity="0.7607843137254902" d="M 1492.5 165 L 1506.5 168 Q 1516.1 171.9 1522 179.5 L 1524.5 183 L 1530 187.5 L 1539 207.5 L 1542 220.5 L 1546 227.5 L 1546 248.5 L 1528 274 Q 1525.3 272.9 1526 275.5 L 1522.5 279 L 1514.5 282 L 1484.5 302 L 1470.5 309 L 1464.5 310 L 1448.5 317 L 1442.5 318 L 1418.5 327 L 1410.5 328 L 1407.5 330 L 1385.5 332 L 1366.5 336 L 1349.5 348 L 1334 361.5 L 1332 364.5 L 1317.5 381 Q 1315.3 380.3 1316 382.5 Q 1313.8 389.8 1308.5 394 L 1304 396 L 1300 402.5 L 1299 415.5 L 1301 419 L 1317 431.5 L 1317 444.5 L 1306.5 457 L 1295.5 461 L 1284.5 461 L 1269.5 450 L 1264.5 449 L 1262 450 L 1257 460.5 L 1233 498 Q 1230.3 496.9 1231 499.5 Q 1228.8 500.8 1231.5 502 L 1240 506 Q 1238.9 508.7 1241.5 508 Q 1242.5 511 1247.5 510 L 1255 503.5 L 1258 499.5 L 1260 492.5 L 1267.5 484 Q 1270.1 480.1 1277.5 481 Q 1279 483.5 1284.5 482 L 1290 486 L 1290 488 Q 1292.7 486.9 1292 489.5 L 1295 494.5 L 1298 506.5 L 1298 511.5 L 1293 521.5 L 1283 533.5 L 1282 537.5 Q 1272.2 547.4 1266 560 Q 1263 558.8 1264 562.5 L 1253 576.5 L 1248 586 Q 1245.3 584.9 1246 587.5 Q 1242.8 595.3 1236 599.5 L 1236 601.5 L 1220 619.5 L 1216 630.5 Q 1211.4 633.9 1210 640.5 L 1204 646.5 L 1200 655 Q 1197 653.8 1198 657.5 Q 1193.7 668.2 1186 675.5 L 1174 697.5 L 1170 701.5 L 1168 708.5 L 1159.5 717 Q 1155.5 716.5 1155 719.5 L 1151 727.5 Q 1151.8 733.8 1149 736.5 Q 1150.8 738.8 1155.5 738 L 1158 737 L 1163.5 730 Q 1165.8 730.8 1165 728.5 L 1177 716.5 L 1180 710 L 1184 707.5 Q 1183.3 705.3 1185.5 706 Q 1190.3 700.8 1198.5 699 Q 1200.8 699.8 1200 703.5 L 1195 707.5 L 1192 719.5 L 1166 750.5 L 1164 755.5 L 1155 765.5 L 1143 785 L 1138 788.5 L 1135 797 L 1132 798.5 Q 1130.8 804.3 1126 806.5 L 1124 812.5 L 1118 818.5 L 1112 830.5 L 1106 836.5 L 1099 848 Q 1096.3 846.9 1097 849.5 L 1094 854.5 L 1094 857.5 L 1091 862.5 L 1088 872.5 L 1074.5 888 L 1059.5 897 L 1053.5 897 L 1047.5 895 L 1044.5 892 L 1042 892 Q 1043.1 889.3 1040.5 890 L 1037 885.5 L 1037 868.5 L 1041 852.5 L 1046 844.5 L 1056 819.5 Q 1063.1 814.1 1066 804.5 L 1066 801.5 L 1070 795.5 L 1077 775.5 L 1084 766.5 L 1094 746.5 L 1108 726.5 L 1112 716.5 L 1123 701.5 L 1130 687.5 L 1141 673.5 L 1142 670 Q 1144.7 671.1 1144 668.5 L 1149 663.5 L 1162 637.5 L 1177 614.5 L 1179 608.5 L 1176.5 607 L 1169.5 610 Q 1154.7 622.7 1137 632.5 L 1127 648.5 L 1115.5 662 L 1113 663.5 L 1096 696.5 L 1074 722.5 L 1065 741.5 L 1057 753.5 L 1051 759.5 L 1050 763.5 L 1042 774.5 L 1041 778.5 L 1020 807.5 L 1018 814 Q 1015.3 812.9 1016 815.5 L 1010 827.5 L 995 846.5 L 992 854 Q 989.3 852.9 990 855.5 L 976 878.5 L 969 886.5 L 948 923.5 L 943 928.5 Q 941 935.5 936 939.5 L 931 951.5 L 925 960 L 922 961.5 L 916 973.5 L 904 991.5 L 904 994.5 L 859.5 1062 Q 857.3 1061.3 858 1063.5 L 852 1074.5 L 848 1078.5 L 847 1082.5 L 819.5 1122 Q 817.3 1121.3 818 1123.5 L 812 1136.5 L 801 1150.5 L 780 1189.5 L 771 1203.5 L 764 1210.5 L 756 1225.5 L 744 1242.5 L 739 1253.5 L 730 1264.5 L 716 1286.5 L 708 1304.5 L 696 1320.5 L 692 1330.5 L 689 1333.5 L 689 1336.5 L 681 1345.5 L 668 1370 Q 665.3 1368.9 666 1371.5 Q 655.8 1384.2 650 1400 Q 647.3 1398.9 648 1401.5 L 634 1426.5 Q 629 1430.5 627 1437.5 L 622 1442.5 L 615 1457.5 L 608 1466.5 L 601 1480.5 L 594 1488.5 L 587 1503.5 L 579 1515.5 L 574 1525.5 L 573 1530.5 L 568 1535.5 L 552 1565.5 L 543 1578 Q 540.3 1576.9 541 1579.5 L 510 1634 Q 507.3 1632.9 508 1635.5 L 500 1646.5 L 494 1658.5 L 494 1661.5 L 480 1686.5 L 478 1693 Q 475.3 1691.9 476 1694.5 L 472 1703 Q 469.3 1701.9 470 1704.5 L 442 1751.5 L 439 1762.5 L 430 1777.5 L 428 1784 Q 425.3 1782.9 426 1785.5 Q 422.5 1789 422 1795.5 L 409 1817.5 L 403 1832.5 L 400 1836.5 L 400 1839.5 L 396 1843.5 L 380 1878.5 L 370 1892.5 L 360 1912.5 L 360 1915.5 L 353 1933.5 L 345 1944.5 L 332 1972.5 L 325 1982.5 L 313 2007.5 L 310 2017.5 L 300 2034.5 L 298 2041.5 L 270 2084.5 L 264.5 2090 Q 259.9 2096.4 246.5 2094 L 237 2089.5 L 233 2081.5 Q 234.7 2073.3 232 2069.5 L 236 2046.5 L 240.5 2039 L 244.5 2039 L 256.5 2044 L 262 2038.5 L 264 2031.5 L 270 2023.5 L 279 2000.5 L 279 1995.5 L 280.5 1994 L 283 1992.5 L 286 1983.5 L 290 1979.5 L 295 1963.5 L 302 1952.5 L 304 1944.5 L 313 1929.5 L 316 1921.5 L 327 1904.5 L 327 1902.5 L 330 1891.5 L 336 1882.5 L 342 1866.5 L 348 1858.5 L 351 1850.5 L 361 1834.5 L 362 1829.5 L 372 1811.5 L 374 1803.5 L 383 1784.5 L 393 1769.5 L 401 1760.5 Q 400.4 1754.4 404 1752.5 L 404 1748.5 L 413 1731.5 L 416 1728.5 L 420 1720.5 L 421 1714.5 L 428 1703.5 L 437 1683.5 L 453 1660.5 L 460 1645.5 L 479 1616.5 L 500 1575.5 L 506 1569.5 L 511 1561.5 L 522 1538 Q 524.7 1539.1 524 1536.5 L 533 1523.5 L 536 1514.5 L 543 1505.5 L 548 1493.5 L 556.5 1483 L 559 1481.5 L 578 1446.5 Q 586.2 1439.7 591 1429.5 L 615 1382.5 L 632 1360.5 L 638 1346.5 L 651.5 1326 Q 653.8 1326.8 653 1324.5 L 663 1304.5 L 668 1299.5 Q 668.6 1293.6 672.5 1291 Q 674.8 1291.8 674 1289.5 L 683 1277.5 L 690 1261.5 L 693 1258.5 L 694 1253.5 Q 700.8 1247.3 704 1237.5 L 711.5 1229 Q 713.8 1229.8 713 1227.5 L 720 1212.5 L 726 1205.5 L 729 1198.5 L 740 1185.5 L 742 1179.5 L 749 1170.5 L 751 1163.5 L 755.5 1158 L 758 1156.5 L 770 1133.5 Q 777.7 1127.2 781 1116.5 L 791 1105.5 L 806 1081.5 L 806 1079.5 L 811 1073.5 L 813 1067.5 L 829 1045.5 L 832 1037.5 L 836 1033.5 L 842 1020.5 Q 847.3 1016.3 849 1008.5 L 853 1004.5 L 856 997.5 L 863 989.5 L 872 970.5 Q 883.7 957.2 891 939.5 L 907 919.5 L 927 880 Q 929.7 881.1 929 878.5 L 939 864.5 L 944 853.5 L 969 820.5 L 980 798.5 L 998 773.5 L 1011 750.5 L 1019 740.5 L 1019 738.5 L 1023.5 734 L 1029 729.5 L 1031 722.5 Q 1036.7 716.7 1039 707.5 L 1066 671.5 L 1080 646.5 L 1080 643 Q 1077.3 641.1 1070.5 642 L 1050.5 646 L 1041 652.5 Q 1041.8 654.8 1039.5 654 L 1034 662 Q 1031.3 660.9 1032 663.5 L 1024 679 Q 1021.3 677.9 1022 680.5 L 1010 698.5 L 1010 701 Q 1007.3 699.9 1008 702.5 L 1001 716.5 L 992 727.5 L 990 733.5 L 967 766.5 L 966 771.5 L 963 776 L 960 777.5 L 952 793.5 L 943 804.5 Q 931.3 829.8 914.5 850 Q 912.3 849.3 913 851.5 L 906 862.5 L 880 895.5 L 877 901.5 L 850.5 932 L 844 937.5 L 838.5 944 L 832 948 L 822.5 960 L 820 961.5 Q 820.8 963.8 818.5 963 L 817 966 L 805 974.5 Q 805.8 976.8 803.5 976 L 773 997.5 L 771.5 1000 L 749.5 1012 L 738.5 1020 L 708.5 1035 L 703.5 1039 L 678.5 1050 L 661.5 1055 L 650.5 1056 L 631.5 1061 L 609.5 1061 L 608.5 1062 L 606.5 1062 L 583.5 1063 L 574.5 1061 L 564.5 1061 L 554.5 1057 L 548.5 1057 Q 538.2 1052.3 524.5 1051 L 498 1042 Q 499.1 1039.3 496.5 1040 L 460.5 1009 L 448 1000.5 L 441.5 993 Q 430.7 987.3 424 977.5 L 422.5 975 L 417 970.5 L 401 950.5 L 394 936.5 L 390.5 933 Q 388.3 933.8 389 931.5 L 366 898.5 L 360 884.5 L 351 871.5 L 346 857.5 L 342 851.5 L 341 843.5 L 335 834.5 L 334 829.5 L 329 819.5 L 326 807.5 L 321 800.5 Q 320.7 793.3 317 789.5 L 312 764.5 L 297 725.5 L 297 720.5 L 294 713.5 L 294 707.5 L 292 701.5 L 291 618.5 L 294 613.5 L 297 601.5 L 297 595.5 L 301 575.5 L 301 559.5 L 302 554.5 Q 305.5 550 306 542.5 L 315 525.5 L 320 508.5 L 322 496.5 L 344 460.5 L 352 444.5 L 354 435.5 L 358.5 430 L 366 423.5 L 378 408.5 L 382.5 400 L 390 393.5 L 392.5 390 L 402 383.5 Q 401.3 381.3 403.5 382 L 433.5 362 L 439.5 360 L 456.5 350 L 526.5 323 L 555.5 319 L 565.5 316 L 574.5 316 L 578.5 314 L 588.5 313 L 595.5 310 L 609.5 307 L 644.5 306 L 649.5 304 L 657.5 304 L 665.5 302 L 749.5 300 L 750.5 301 L 761.5 301 L 762.5 300 L 803.5 300 L 804.5 301 L 813.5 301 Q 815.3 298.3 821.5 300 L 827.5 302 L 846.5 304 L 847.5 303 L 861.5 303 L 862.5 302 L 885.5 302 L 894.5 304 L 932.5 304 L 933.5 305 L 945.5 305 L 946.5 306 L 974.5 306 L 990.5 309 L 1006.5 309 L 1007.5 310 L 1020.5 310 L 1022.5 311 L 1023.5 310 L 1038.5 310 L 1039.5 311 L 1079.5 311 L 1080.5 312 L 1090.5 312 L 1101.5 314 L 1117.5 314 L 1118.5 315 L 1149.5 315 L 1150.5 314 L 1163.5 314 L 1169.5 312 L 1179.5 312 L 1184 309.5 L 1184 306.5 Q 1180.8 304.7 1181 299.5 L 1178 296.5 L 1176 289.5 Q 1170.5 279.4 1162 272.5 L 1154 256.5 L 1145 243.5 L 1144 239.5 L 1133 223.5 L 1127 207.5 L 1127 203.5 L 1130 192.5 L 1138.5 183 L 1144.5 180 L 1158.5 179 L 1169.5 184 L 1191.5 184 Q 1193.3 186.8 1199.5 185 L 1201.5 184 L 1205.5 185 L 1206.5 184 L 1251.5 184 L 1254.5 185 L 1259.5 184 L 1265.5 186 L 1289.5 186 Q 1290.8 188.2 1295.5 187 Q 1297 184.5 1302.5 186 L 1303.5 187 L 1318.5 188 L 1326.5 190 L 1341.5 190 L 1350.5 192 L 1365.5 192 L 1370.5 189 L 1380.5 186 L 1385 181.5 L 1387.5 178 L 1403.5 170 L 1415.5 169 L 1426.5 173 L 1437.5 183 L 1441.5 184 L 1452.5 176 L 1471.5 168 L 1478.5 166 L 1491.5 166 L 1492.5 165 Z M 1468 217 L 1447 231 L 1439 241 L 1437 242 L 1432 248 Q 1429 247 1430 250 L 1429 250 L 1418 261 Q 1419 263 1417 262 Q 1412 265 1411 272 L 1400 284 L 1399 289 Q 1404 287 1415 288 L 1439 282 Q 1446 276 1458 274 L 1494 251 L 1498 250 L 1504 241 Q 1501 239 1503 233 L 1498 223 L 1491 217 L 1468 217 Z M 1290 219 L 1283 223 Q 1278 222 1277 224 L 1241 224 L 1237 226 L 1222 227 Q 1214 231 1205 232 L 1201 235 L 1201 238 L 1208 247 L 1219 267 L 1222 276 L 1234 291 L 1240 302 L 1243 303 Q 1251 303 1254 297 Q 1253 294 1256 295 L 1257 293 L 1272 282 Q 1271 278 1274 276 Q 1279 269 1286 266 L 1292 256 L 1302 250 L 1322 228 L 1323 224 L 1322 222 L 1309 221 L 1308 220 Q 1297 221 1290 219 Z M 1355 262 L 1347 266 L 1344 272 L 1337 278 L 1332 284 L 1327 288 L 1320 295 L 1320 299 L 1325 300 L 1331 299 Q 1343 289 1350 274 L 1353 272 L 1357 266 Q 1359 261 1355 262 Z M 678 342 L 677 343 L 655 343 L 654 344 L 638 345 L 637 346 L 619 346 L 611 348 L 602 348 L 578 354 L 569 354 L 558 358 L 549 358 L 543 360 L 533 361 L 527 364 L 517 366 L 506 372 L 496 374 L 481 381 L 476 382 L 474 384 L 471 384 L 454 393 Q 439 405 422 415 Q 423 417 421 416 L 416 422 L 415 422 L 404 433 Q 405 435 403 434 L 390 451 Q 391 453 389 452 L 377 468 L 366 490 L 366 493 L 359 504 L 355 515 L 349 525 L 348 531 L 342 541 Q 341 551 337 559 L 335 581 L 329 601 L 329 608 L 327 616 L 326 640 L 325 641 L 326 669 L 327 670 L 327 682 L 328 683 L 329 698 L 338 729 L 342 736 L 346 748 L 348 761 L 351 766 L 354 780 L 359 787 L 361 797 L 376 829 L 378 837 L 406 889 L 416 902 L 419 909 L 430 920 L 432 925 L 447 941 L 450 943 L 452 947 L 455 948 L 459 956 L 477 972 L 485 978 L 487 978 L 495 985 Q 497 984 496 987 L 499 988 Q 501 987 500 990 L 503 990 L 508 995 L 529 1009 L 540 1014 L 561 1016 L 572 1020 L 579 1020 L 591 1023 L 627 1022 L 654 1014 L 668 1012 L 688 1002 L 705 991 L 713 988 L 716 985 L 721 984 L 733 978 Q 735 979 734 976 L 743 970 Q 745 971 744 969 L 751 963 Q 753 964 752 962 L 762 954 L 775 947 L 780 942 Q 782 943 781 940 L 784 940 L 788 937 L 796 927 L 804 920 L 805 918 L 815 910 L 820 904 L 827 898 Q 826 895 829 896 L 840 883 L 843 877 L 851 869 L 861 852 L 870 844 L 877 834 L 877 832 L 886 821 L 886 819 L 891 812 L 892 807 L 907 785 L 920 761 L 934 742 L 939 730 Q 945 725 947 718 L 955 710 L 968 687 L 973 682 L 981 665 Q 982 660 980 659 L 969 659 L 951 663 L 937 664 L 933 666 L 921 667 L 904 671 L 875 673 L 858 676 L 841 676 L 836 678 L 817 678 L 806 680 L 766 680 L 765 681 L 757 681 L 755 681 L 730 681 L 729 682 L 713 682 L 712 683 L 682 683 L 681 682 L 653 683 L 644 685 L 621 684 L 617 682 L 603 681 L 575 675 L 569 668 L 568 655 Q 572 648 580 646 L 608 646 L 616 648 L 629 647 L 634 645 L 644 645 L 659 642 L 684 641 L 685 640 L 699 640 L 700 641 L 736 640 L 742 638 L 772 638 L 773 639 L 778 638 L 802 638 L 803 637 L 829 637 L 838 635 L 868 634 L 886 630 L 897 630 L 904 628 L 924 626 L 932 623 L 951 622 L 963 618 L 973 617 L 977 615 L 998 613 L 1020 607 Q 1027 599 1032 589 L 1040 580 Q 1043 568 1050 561 L 1053 559 L 1060 551 L 1070 534 Q 1069 531 1072 532 L 1080 522 Q 1079 519 1082 520 L 1091 505 L 1099 497 L 1105 488 L 1108 481 L 1122 461 L 1128 449 L 1134 443 L 1136 438 L 1140 435 L 1157 412 L 1160 410 L 1163 404 L 1179 383 Q 1184 368 1193 357 L 1193 353 L 1191 352 L 1151 354 L 1145 356 L 1143 355 L 1135 355 L 1134 356 L 1096 356 L 1095 355 L 1083 355 L 1082 354 L 1047 354 L 1046 353 L 1044 354 L 999 351 L 998 350 L 956 349 L 949 347 L 931 347 L 930 346 L 917 346 L 916 345 L 887 345 L 886 344 L 857 344 L 856 343 L 835 343 L 834 344 L 809 343 L 808 342 L 767 342 L 757 345 L 746 342 L 678 342 Z M 1286 345 L 1283 351 L 1279 354 Q 1277 360 1284 358 L 1292 347 Q 1291 344 1286 345 Z M 1227 394 L 1206 419 L 1205 423 Q 1200 426 1198 434 L 1192 438 L 1189 443 Q 1190 445 1188 444 L 1183 452 L 1174 461 L 1171 467 L 1157 484 L 1156 488 L 1150 494 L 1145 502 Q 1145 508 1142 511 L 1142 512 L 1140 512 Q 1141 515 1139 514 L 1133 524 L 1126 531 Q 1120 543 1110 553 L 1104 565 L 1088 584 L 1085 591 L 1086 596 L 1093 595 L 1103 595 L 1120 588 L 1126 584 L 1132 573 L 1142 561 Q 1141 558 1144 559 L 1159 538 L 1165 522 L 1169 518 L 1173 510 L 1177 507 Q 1176 504 1179 505 L 1197 478 L 1200 476 L 1201 474 Q 1200 471 1203 472 L 1203 471 L 1212 462 L 1219 446 L 1222 444 L 1228 436 L 1242 411 L 1241 406 L 1234 395 L 1227 394 Z M 1190 559 L 1188 561 Q 1189 563 1187 562 L 1182 571 L 1182 574 L 1186 581 L 1186 589 L 1184 596 Q 1182 597 1185 598 L 1189 595 L 1204 578 L 1204 576 L 1209 570 L 1209 566 L 1199 563 L 1195 559 L 1190 559 Z M 662 1338 L 662 1341 L 666 1340 L 662 1338 Z M 608 1429 L 603 1434 L 605 1437 L 607 1436 L 608 1434 L 608 1429 Z M 587 1464 L 583 1466 L 576 1476 L 574 1482 L 571 1483 Q 572 1489 569 1493 L 571 1496 L 575 1495 Q 580 1491 582 1483 L 588 1477 Q 587 1471 590 1470 Q 593 1462 587 1464 Z " /><path fill="rgb(0,0,0)" stroke="rgb(0,0,0)" stroke-width="1" opacity="0.7607843137254902" d="M 1540.5 372 Q 1556.2 369.8 1562 377.5 L 1565 382.5 L 1565 393.5 L 1564 395.5 Q 1567 398.5 1567 404.5 L 1563 413.5 L 1561 422.5 L 1553 432.5 L 1552 442.5 L 1546 450.5 L 1539 467.5 L 1531 477.5 L 1530 484 Q 1527.3 482.9 1528 485.5 L 1527 488 L 1524 489.5 Q 1524.8 491.8 1522.5 491 Q 1518.8 499.3 1512 504.5 L 1508 515.5 L 1500 524.5 L 1495 535.5 L 1485.5 548 L 1480 552.5 L 1480 554.5 L 1470 566.5 L 1464 578.5 L 1457 586.5 L 1456 590.5 L 1439 608.5 L 1434 617.5 L 1420.5 631 L 1415.5 633 L 1412 632 L 1411 626.5 L 1417 619.5 L 1420 610.5 L 1424 604 L 1428 601.5 L 1438 582.5 L 1442 571.5 L 1446 566.5 L 1448 559.5 L 1454 551.5 L 1458 539.5 L 1462 534.5 L 1470 516.5 L 1470 511 L 1467 512.5 L 1461.5 520 Q 1459.3 519.3 1460 521.5 L 1451 532.5 L 1450 536 Q 1447.3 534.9 1448 537.5 L 1444 540.5 L 1442 546.5 Q 1434.4 554.4 1430 565.5 L 1418 580.5 L 1417 584 L 1414 585.5 Q 1411.6 593.6 1405.5 598 Q 1403.3 597.3 1404 599.5 L 1401 603.5 Q 1401.7 610.2 1399 613.5 L 1385.5 629 L 1364.5 641 L 1355.5 642 L 1342.5 633 L 1340 633 L 1336 626.5 L 1335 615.5 L 1332.5 613 L 1324.5 627 L 1319 631.5 L 1310 648 Q 1307.3 646.9 1308 649.5 L 1300 661.5 L 1287 675.5 L 1286 685.5 Q 1282.3 688.6 1282 694 Q 1279.3 692.9 1280 695.5 L 1263 718 L 1232.5 735 L 1227.5 737 L 1220.5 737 L 1213 732 L 1210.5 726 L 1208 724.5 Q 1202.3 719.2 1204 706.5 L 1207 701 Q 1209.7 702.1 1209 699.5 L 1219 683.5 L 1226.5 675 Q 1228.8 675.8 1228 673.5 L 1233 667.5 L 1233 664.5 L 1240 649.5 L 1274 598.5 L 1276 592.5 L 1286 578.5 L 1290 569 L 1294 566.5 L 1296 560.5 L 1307.5 544 L 1311 541.5 Q 1315.7 530.7 1324 523.5 L 1330 511.5 L 1331 505.5 L 1339 495.5 Q 1339.8 489.3 1344 486.5 L 1344 484 L 1347 482.5 L 1348.5 480 L 1356.5 477 L 1363.5 477 Q 1370.9 478.1 1374 483.5 L 1377 493.5 L 1377 500.5 L 1379 504.5 L 1379 513.5 L 1375 518.5 L 1374 524 Q 1371.3 522.9 1372 525.5 L 1358 546.5 Q 1358.8 548.8 1362.5 548 L 1365 544 L 1370 540.5 L 1375 531.5 L 1394 512.5 L 1408.5 492 L 1418 483.5 L 1422.5 478 L 1431.5 474 L 1440.5 474 L 1449 481.5 L 1450 483.5 L 1450 495.5 L 1449 500 L 1451.5 501 L 1459 498 L 1459 495.5 L 1474 476 L 1479 472.5 L 1485.5 462 L 1490 459.5 L 1495 449 Q 1497.7 450.1 1497 447.5 L 1513 428.5 L 1514 424 L 1517 422.5 L 1524 411.5 L 1528 392.5 L 1527 390.5 L 1527 388.5 Q 1528.2 380.2 1533.5 376 L 1540.5 372 Z " /><path fill="rgb(0,0,0)" stroke="rgb(0,0,0)" stroke-width="1" opacity="0.7607843137254902" d="M 1496.5 688 L 1503.5 689 L 1505 690.5 L 1504 697.5 L 1499.5 704 L 1476.5 721 L 1449.5 735 L 1439.5 738 L 1429.5 747 L 1421.5 750 Q 1414.6 757.6 1404.5 762 L 1377.5 773 L 1374.5 773 L 1369.5 777 L 1358.5 782 L 1344.5 786 L 1321.5 799 L 1306.5 803 L 1302.5 806 L 1295.5 808 L 1287.5 808 L 1276 801.5 L 1270 791.5 L 1269 782.5 Q 1271.3 781.3 1270 776.5 L 1272.5 773 L 1278.5 770 L 1298.5 765 L 1309.5 759 L 1328 752 Q 1326.8 749 1330.5 750 L 1337.5 743 L 1345.5 742 L 1356.5 737 L 1365.5 735 L 1375.5 730 L 1384.5 728 L 1390.5 724 L 1398.5 722 L 1404.5 718 L 1410.5 717 L 1429.5 708 Q 1442.2 705.7 1451.5 700 L 1460.5 699 L 1470.5 695 Q 1485.5 693.5 1496.5 688 Z " /></svg>